# xmcd
#
# Track frame offsets:
#	150
#	16617
#	29062
#	46600
#	60786
#	80738
#	96425
#	111603
#	128664
#	144572
#	159083
#	177168
#	194355
#	214233
#	221069
#	230264
#
# Disc length: 3251 seconds
#
# Revision: 0
# Processed by: cddbd v1.5.2PL0 Copyright (c) Steve Scherf et al.
# Submitted via: EasyCDDAExtractor 16.0.8.2
#
DISCID=d80cb110
DTITLE=Χριστοδουλόπουλος Μάκης - Πορτρέτο-Μ. Χριστοδουλόπουλος 1
DYEAR=2014
DGENRE=Ποικίλη
TTITLE0=Το προσκλητήριο [Ανδ. Μέξας-Ν. Βαξαβανέλης]
TTITLE1=Μαραμένη μου γαρδένια [ίδιος κ Ανδ. Σπυρόπουλος]
TTITLE2=Φτάνει να γυρίσεις [Ηλ. Μπάσιος-Γ. Παπαϊωάννου]
TTITLE3=Εγώ δε μοιάζω κανενός [ίδιος κ Ανδ. Σπυρόπουλος]
TTITLE4=Απορώ [Γ. Πάριος, εισ. Β. Σαλέας]
TTITLE5=Δεν κοιμάμαι τώρα πια τα βράδια[Σ.Κυπριώτης-Π.Βαξαβανέλη]
TTITLE6=Φτιάξε μου έναν καφέ [ίδιος κ Ανδ. Σπυρόπουλος]
TTITLE7=Ασυνόδευτος [Θ. Καμπουρίδης-Β. Παπαδόπουλος]
TTITLE8=Πήγαινέ με πάλι πίσω ταξιτζή[Θ.Καμπουρίδης-Β.Παπαδόπουλος]
TTITLE9=Εσύ ό,τι πεις [Ηλ. Τρυφωνίδης-Άγγελος]
TTITLE10=Βάλε φωτιά στον χωρισμό [Δ. Σταμπουλής-Κ. Νίτσος]
TTITLE11=Ραγισμένα μάτια [Λ. Ζέρβας-Ανδ. Σπυρόπουλος]
TTITLE12=Πόση μοναξιά [Β. Σαλέας-Ανδ. Σπυρόπουλος]
TTITLE13=Παντρεμένοι κι οι δυό [Μ. Χριστοδουλόπουλος]
TTITLE14=Όσοι είναι αισθηματίες [Γ. Κόρος-Δ. Βαρσαμίδης]
TTITLE15=Να ζήσουν οι κομμώτριες [Β. Σούκας-Στ. Λεονάρδος]
EXTD=
EXTT0=
EXTT1=
EXTT2=
EXTT3=
EXTT4=
EXTT5=
EXTT6=
EXTT7=
EXTT8=
EXTT9=
EXTT10=
EXTT11=
EXTT12=
EXTT13=
EXTT14=
EXTT15=
PLAYORDER=
